<svg xmlns="http://www.w3.org/2000/svg"  viewBox="0 0 100 100" width="400px" height="400px"><polygon fill="#fef6aa" points="25.229,33.776 36.064,40.319 36.362,55.958 24.702,62.221 28.886,47.866"/><polygon fill="#f9e65c" points="36.362,55.958 24.387,63.375 39.435,66.149 49.809,77.426 49.809,63.979"/><polygon fill="#f9e65c" points="75.87,32.933 63.853,39.803 63.626,55.958 75.284,62.346 71.114,47.866"/><polygon fill="#fef6aa" points="49.881,19.391 50.049,31.766 63.525,40 74.894,33.345 60.402,29.77"/><polygon fill="#fefdef" points="49.881,19.391 39.936,29.378 25.106,33.883 36.266,40 50.049,31.766"/><path fill="#fff" d="M71.114,47.866l4.353,14.933C84.711,60.666,84,49.822,84,46.444c0-0.89,0-1.422,0-1.422 l-4.267,1.422c0,0,4.267-3.022,4.267-9.244c0-4.978-1.422-7.822-1.422-7.822l-7.111,3.555L71.114,47.866z"/><path fill="#fff" d="M24.533,32.933l-7.111-3.555c0,0-1.422,2.844-1.422,7.822c0,6.222,4.267,9.244,4.267,9.244 L16,45.022c0,0,0,0.532,0,1.422c0,3.378-0.711,14.222,8.533,16.355l4.353-14.933L24.533,32.933z"/><polygon fill="#f69272" points="50,77.254 50.049,62.744 63.626,55.958 75.284,63.085 60.565,66.106"/><path fill="#656566" d="M50,32.222c-8.64,0-15.644,7.004-15.644,15.644S41.36,63.51,50,63.51s15.644-7.004,15.644-15.644	S58.64,32.222,50,32.222z"/><path fill="#656566" d="M26.969,63.729l-1.087,3.641c-0.112,0.375-0.065,0.778,0.131,1.116 c0.195,0.338,0.521,0.582,0.9,0.674l12.936,3.105l9.136,9.308C49.253,81.845,49.619,82,50.001,82c0.383,0,0.747-0.154,1.015-0.427 l9.136-9.308l12.936-3.105c0.38-0.091,0.705-0.334,0.9-0.674c0.196-0.338,0.243-0.741,0.131-1.116l-1.18-3.945L60.557,66.34 L50,77.732L39.443,66.34L26.969,63.729z"/><path fill="#f9e65c" d="M63.5,47.743h-0.004C63.455,40.334,57.419,34.318,50,34.318c-7.42,0-13.457,6.018-13.496,13.428H36.5	c0,0.012,0.002,0.022,0.002,0.033c0,0.013-0.002,0.026-0.002,0.039c0,0.264,0.008,0.525,0.022,0.785l0.028-0.002	c0.249,4.043,2.16,6.928,5.864,8.761c0.085,1.503,1.334,2.701,2.858,2.701h9.455c1.531,0,2.786-1.209,2.858-2.69	c3.786-1.866,5.699-4.812,5.878-8.955l0.022,0.001c0.01-0.2,0.014-0.399,0.014-0.601c0-0.013-0.002-0.025-0.002-0.038	C63.498,47.767,63.5,47.756,63.5,47.743z"/><path fill="#1f212b" d="M52.642,44.356c-0.128,0-0.256-0.049-0.354-0.146c-0.195-0.195-0.195-0.512,0-0.707l1.32-1.321 c0.195-0.195,0.512-0.195,0.707,0s0.195,0.512,0,0.707l-1.32,1.321C52.897,44.307,52.77,44.356,52.642,44.356z M47.358,44.356 c-0.128,0-0.256-0.049-0.354-0.146l-1.32-1.321c-0.195-0.195-0.195-0.512,0-0.707s0.512-0.195,0.707,0l1.32,1.321 c0.195,0.195,0.195,0.512,0,0.707C47.614,44.307,47.486,44.356,47.358,44.356z"/><path fill="#1f212b" d="M43.397,44.677c-2.46,0-4.462,2.001-4.462,4.461c0,2.46,2.002,4.462,4.462,4.462 s4.461-2.001,4.461-4.462C47.858,46.678,45.857,44.677,43.397,44.677z"/><path fill="#1f212b" d="M56.604,44.677c-2.46,0-4.462,2.001-4.462,4.461c0,2.46,2.002,4.462,4.462,4.462 s4.461-2.001,4.461-4.462C61.064,46.678,59.063,44.677,56.604,44.677z"/><path fill="#1f212b" d="M50.416,50.203c-0.186-0.278-0.646-0.278-0.832,0l-2.642,3.962 c-0.103,0.153-0.112,0.351-0.024,0.513c0.087,0.163,0.256,0.264,0.44,0.264h5.283c0.185,0,0.354-0.102,0.44-0.264 c0.088-0.163,0.078-0.36-0.024-0.513L50.416,50.203z"/><path fill="#1f212b" d="M85.007,47.166L85,45.021c0-0.321-0.154-0.624-0.415-0.811c-0.262-0.189-0.597-0.239-0.901-0.138	l-0.712,0.237C84.029,42.655,85,40.294,85,37.2c0-5.155-1.465-8.145-1.527-8.27c-0.119-0.237-0.326-0.417-0.578-0.501	c-0.252-0.083-0.524-0.064-0.764,0.054l-6.746,3.372l-14.302-3.367L50.733,17.32c-0.379-0.408-1.088-0.408-1.467,0l-10.35,11.168	l-14.303,3.367l-6.745-3.373c-0.237-0.118-0.51-0.138-0.764-0.054c-0.252,0.084-0.459,0.264-0.578,0.501	C16.465,29.055,15,32.045,15,37.2c0,3.095,0.971,5.456,2.028,7.11l-0.712-0.237c-0.305-0.102-0.641-0.052-0.901,0.138	C15.154,44.398,15,44.7,15,45.021l-0.006,2.132c-0.048,3.898-0.163,14.183,9.028,16.491c0.035,0.016,0.067,0.038,0.105,0.046	l1.706,0.352l-0.908,3.041c-0.19,0.637-0.108,1.331,0.222,1.901c0.329,0.572,0.887,0.99,1.534,1.148l12.656,3.038l8.936,9.103	C48.725,82.735,49.355,83,50.001,83c0.654,0,1.269-0.258,1.729-0.726l8.936-9.104l12.656-3.038c0.646-0.155,1.206-0.574,1.532-1.145	c0.332-0.574,0.414-1.268,0.224-1.905l-0.904-3.022l1.796-0.368c0.071-0.015,0.137-0.046,0.194-0.088	C85.166,61.212,85.056,51.039,85.007,47.166z M50.5,20.011l9.323,10.061c0.135,0.146,0.311,0.248,0.504,0.293L73.641,33.5	l-9.965,5.828c-2.773-4.425-7.621-7.409-13.176-7.58V20.011z M65.145,47.866c0,8.351-6.794,15.144-15.145,15.144	s-15.145-6.793-15.145-15.144S41.649,32.722,50,32.722S65.145,39.516,65.145,47.866z M27.281,34.385l-1.355-0.783l13.747-3.237	c0.193-0.045,0.369-0.147,0.504-0.293L49.5,20.011v11.736c-5.642,0.174-10.553,3.249-13.303,7.788l-7.353-4.247	c-0.238-0.136-0.545-0.057-0.683,0.183c-0.139,0.239-0.057,0.545,0.183,0.683l7.354,4.248c-1.171,2.235-1.843,4.771-1.843,7.464	c0,2.804,0.721,5.442,1.984,7.742l-10.68,6.246l4.205-13.842c0.028-0.094,0.028-0.195,0-0.29l-3.99-13.284l1.407,0.813	c0.079,0.045,0.165,0.067,0.25,0.067c0.172,0,0.34-0.089,0.433-0.25C27.603,34.829,27.521,34.523,27.281,34.385z M16.993,47.178	L17,46.409l2.95,0.983c0.472,0.158,0.98-0.055,1.205-0.494c0.225-0.44,0.094-0.979-0.308-1.269C20.69,45.517,17,42.795,17,37.2	c0-3.055,0.564-5.272,0.954-6.438l6.204,3.102l4.205,14.002l-4.175,13.744C16.862,59.512,16.947,50.91,16.993,47.178z M25.322,62.917l11.036-6.454c2.779,4.394,7.61,7.352,13.142,7.523v12.472L39.811,66c-0.071-0.077-0.164-0.129-0.267-0.15	L25.322,62.917z M73.121,67.99c-0.057,0.099-0.153,0.171-0.266,0.199L59.641,71.36l-9.337,9.512c-0.161,0.164-0.444,0.163-0.604,0	l-9.338-9.513l-13.211-3.171c-0.114-0.028-0.213-0.101-0.272-0.205c-0.058-0.1-0.071-0.216-0.038-0.328l0.958-3.208l11.387,2.349	l10.447,11.274c0.095,0.102,0.228,0.16,0.367,0.16s0.272-0.058,0.367-0.16l10.447-11.274l11.392-2.333l0.955,3.192	C73.195,67.769,73.182,67.885,73.121,67.99z M60.456,65.851c-0.102,0.021-0.195,0.073-0.267,0.15L50.5,76.457V63.994	c5.507-0.17,10.319-3.109,13.104-7.47l11.096,6.41L60.456,65.851z M64.124,55.669c1.284-2.315,2.02-4.973,2.02-7.803	c0-2.78-0.707-5.398-1.949-7.684l10.56-6.176l-4.12,13.716c-0.029,0.096-0.028,0.197,0.001,0.292l4.312,13.908L64.124,55.669z M75.896,61.601l-4.259-13.737l4.205-14.001l6.204-3.101C82.436,31.929,83,34.146,83,37.2c0,5.595-3.69,8.317-3.845,8.428	c-0.404,0.286-0.538,0.826-0.313,1.268c0.223,0.442,0.738,0.652,1.208,0.497L83,46.409l0.007,0.782	C83.054,50.911,83.142,59.471,75.896,61.601z"/></svg>